/* XPM */
static char *image[] = {
"64 64 179 2",
"   c None",
"00 c #5ca641",
"10 c #52953a",
"20 c #498635",
"30 c #53973c",
"40 c #4d8c38",
"50 c #4e8c37",
"60 c #509139",
"70 c #579143",
"80 c #c1d5b9",
"90 c #c1d6ba",
":0 c #589144",
";0 c #7da86e",
"A0 c #b5cead",
"B0 c #548f40",
"C0 c #589f3f",
"D0 c #73a263",
"E0 c #e6eee3",
"F0 c #74a264",
"G0 c #58a13f",
"H0 c #549a3c",
"I0 c #54993d",
"J0 c #4e8d37",
"K0 c #51933c",
"L0 c #4d8e38",
"M0 c #52943c",
"N0 c #bad1b2",
"O0 c #bdd8b4",
"P0 c #9bc98b",
"Q0 c #4e8e39",
"R0 c #4e8e38",
"S0 c #5ba641",
"T0 c #50923a",
"U0 c #59a240",
"V0 c #54903f",
"W0 c #bbd1b3",
"X0 c #559b3d",
"Y0 c #689b56",
"Z0 c #e0ebdd",
"a0 c #94c085",
"b0 c #f8faf7",
"c0 c #5ba541",
"d0 c #99c889",
"e0 c #f8fbf8",
"f0 c #77b561",
"g0 c #e4f0e0",
"h0 c #4f913a",
"i0 c #c2deb9",
"j0 c #4a8635",
"k0 c #54983c",
"l0 c #579e3e",
"m0 c #59a341",
"n0 c #5aa541",
"o0 c #5ba441",
"p0 c #5da642",
"q0 c #5d944a",
"r0 c #5ba742",
"s0 c #5ea743",
"t0 c #81ab72",
"u0 c #54993c",
"v0 c #5da844",
"w0 c #579d3e",
"x0 c #97ba8b",
"y0 c #569d3e",
"z0 c #5fa744",
"01 c #81ac73",
"11 c #82ac73",
"21 c #5aa441",
"31 c #5ea646",
"41 c #61a648",
"51 c #639e4e",
"61 c #60a547",
"71 c #60a349",
"81 c #b9d0b1",
"91 c #5aa340",
":1 c #60a249",
";1 c #67a553",
"A1 c #67a552",
"B1 c #99be8c",
"C1 c #9abe8d",
"D1 c #64ab4d",
"E1 c #cbddc5",
"F1 c #65aa4d",
"G1 c #e3ede0",
"H1 c #bedcb3",
"I1 c #e4ede1",
"J1 c #6aac55",
"K1 c #eef5eb",
"L1 c #f6f9f5",
"M1 c #86bd72",
"N1 c #f7faf6",
"O1 c #6aae52",
"P1 c #76b260",
"Q1 c #e4eee1",
"R1 c #bcd9b2",
"S1 c #bcd9b1",
"T1 c #e5eee1",
"U1 c #75b360",
"V1 c #cde1c7",
"W1 c #7cb767",
"X1 c #cde1c6",
"Y1 c #9fca90",
"Z1 c #60a846",
"a1 c #a0ca91",
"b1 c #77b462",
"c1 c #70b15a",
"d1 c #5ca244",
"e1 c #71b15b",
"f1 c #6baf54",
"g1 c #bfdcb5",
"h1 c #73a861",
"i1 c #c0dcb6",
"j1 c #6baf53",
"k1 c #b7cfae",
"l1 c #f6faf5",
"m1 c #79b764",
"n1 c #79b663",
"o1 c #79a769",
"p1 c #579e3f",
"q1 c #78a768",
"r1 c #76b661",
"s1 c #5ca642",
"t1 c #58a03f",
"u1 c #51933a",
"v1 c #78a568",
"w1 c #edf3ea",
"x1 c #fefefd",
"y1 c #a2cd93",
"z1 c #5fa946",
"02 c #78b662",
"12 c #8dc27b",
"22 c #4e893a",
"32 c #6d9e5d",
"42 c #b6cead",
"52 c #fefffe",
"62 c #f7faf5",
"72 c #8ec27c",
"82 c #62aa49",
"92 c #77b661",
":2 c #ffffff",
";2 c #fdfefd",
"A2 c #c0ddb6",
"B2 c #6db056",
"C2 c #66ad4e",
"D2 c #7ab865",
"E2 c #f7fbf6",
"F2 c #e7f2e3",
"G2 c #d0e5c8",
"H2 c #a1cc92",
"I2 c #6db055",
"J2 c #79b766",
"K2 c #60a947",
"L2 c #73b35d",
"M2 c #5da843",
"N2 c #7ab765",
"O2 c #7ab764",
"P2 c #6cb055",
"Q2 c #79b765",
"R2 c #79b865",
"S2 c #5ca742",
"T2 c #5ea844",
"U2 c #67ad4f",
"V2 c #72b35c",
"W2 c #7cb966",
"X2 c #78b665",
"Y2 c #5da743",
"Z2 c #5fa845",
"a2 c #60a946",
"b2 c #64ab4b",
"c2 c #69ae51",
"d2 c #6fb157",
"e2 c #76b560",
"f2 c #7bb765",
"g2 c #7cb968",
"h2 c #7cb867",
"i2 c #7db968",
"j2 c #7bb865",
"k2 c #79b864",
"l2 c #78b564",
"                                                                                                                                ",
"                                                                                                                                ",
"                                                                                                                                ",
"                                                                                                                                ",
"                                                    l2k2j2i2h2g2g2h2i2j2k2l2                                                    ",
"                                              f2h2e2d2c2b2a2Z2Y2Y2Z2a2b2c2d2e2h2f2                                              ",
"                                        X2W2V2U2T2S2S2S2S2S2S2S2S2S2S2S2S2S2S2T2U2V2W2X2                                        ",
"                                    R2Q2P2Z2S2S2S2S2S2S2S2S2S2S2S2S2S2S2S2S2S2S2S2S2Z2P2Q2O2                                    ",
"                                  N2P2M2S2S2S2S2S2S2S2S2S2S2S2S2S2S2S2S2S2S2S2S2S2S2S2S2M2P2N2                                  ",
"                              R2L2a2S2S2S2S2S2S2S2S2S2S2S2S2S2S2S2S2S2S2S2S2S2S2S2S2S2S2S2S2K2L2O2                              ",
"                            J2I2S2S2S2S2S2S2S2S2S2S2S2d2H2G2F2E2E2F2G2H2d2S2S2S2S2S2S2S2S2S2S2S2I2D2                            ",
"                          N2C2S2S2S2S2S2S2S2S2S2S2B2A2;2:2:2:2:2:2:2:2:2;2A2I2S2S2S2S2S2S2S2S2S2S2U2N2                          ",
"                        9282S2S2S2S2S2S2S2S2S2S27262:2:25242322222324252:2:26212S2S2S2S2S2S2S2S2S2S28202                        ",
"                      02z1S2S2S2S2S2S2S2S2S2S2y1x1:2:2w1v1u1t1s1s1t1u1v1w1:2:2x1y1S2S2S2S2S2S2S2S2S2S2z1r1                      ",
"                    l282S2S2S2S2S2S2S2S2S2S27252:2:252q1p1S2S2S2S2S2S2p1o152:2:2x112S2S2S2S2S2S2S2S2S2S282n1                    ",
"                  m1C2S2S2S2S2S2S2S2S2S2S2B2l1:2:2:242p1S2S2S2S2S2S2S2S2p1k1:2:2:2l1I2S2S2S2S2S2S2S2S2S2S2C2m1                  ",
"                  j1S2S2S2S2S2S2S2S2S2S2S2i1:2:2:2:2h1S2S2S2S2S2S2S2S2S2S2h1:2:2:2:2g1S2S2S2S2S2S2S2S2S2S2S2f1                  ",
"                e1S2S2S2S2S2S2S2S2S2S2S2d2;2:2:2:2:2d1S2S2S2S2S2S2S2S2S2S2d1:2:2:2:2;2d2S2S2S2S2S2S2S2S2S2S2S2c1                ",
"              b1K2S2S2S2S2S2S2S2S2S2S2S2a1:2:2:2:2:2Z1S2S2S2S2S2S2S2S2S2S2Z1:2:2:2:2:2Y1S2S2S2S2S2S2S2S2S2S2S2K2b1              ",
"              j1S2S2S2S2S2S2S2S2S2S2S2S2X1:2:2:2:2:2W1S2S2S2S2S2S2S2S2S2S2W1:2:2:2:2:2V1S2S2S2S2S2S2S2S2S2S2S2S2j1              ",
"            U1T2S2S2S2S2S2S2S2S2S2S2S2S2T1:2:2:2:2:2S1S2S2S2S2S2S2S2S2S2S2R1:2:2:2:2:2Q1S2S2S2S2S2S2S2S2S2S2S2S2T2P1            ",
"            O1S2S2S2S2S2S2S2S2S2S2S2S2S2N1:2:2:2:2:252M1S2S2S2S2S2S2S2S2M152:2:2:2:2:2L1S2S2S2S2S2S2S2S2S2S2S2S2S2j1            ",
"            z1S2S2S2S2S2S2S2S2S2S2S2S2S2L1:2:2:2:2:2:2K1M1S2S2S2S2S2S2M1K1:2:2:2:2:2:2L1S2S2S2S2S2S2S2S2S2S2S2S2S2z1            ",
"          J1S2S2S2S2S2S2S2S2S2S2S2S2S2S2I1:2:2:2:2:2:2:252H1h2a2a2h2H152:2:2:2:2:2:2:2G1S2S2S2S2S2S2S2S2S2S2S2S2S2S2J1          ",
"          F1S2S2S2S2S2S2S2S2S2S2S2S2S2S2E1:2:2:2:2:2:2:2:2:2:2:2:2:2:2:2:2:2:2:2:2:2:2E1S2S2S2S2S2S2S2S2S2S2S2S2S2S2D1          ",
"          Z2S2S2S2S2S2S2S2S2S2S2S2S2S2S2C1:2:2:2:2:2:2:2:2:2:2:2:2:2:2:2:2:2:2:2:2:2:2B1S2S2S2S2S2S2S2S2S2S2S2S2S2S2Z2          ",
"          S2S2S2S2S2S2S2S2S2S2S2S2S2S2S2A1;2:2:2:2:2:2:2:2:2:2:2:2:2:2:2:2:2:2:2:2:2;2;1S2S2S2S2S2S2S2S2S2S2S2S2S2S2S2          ",
"        :1S2S2S2S2S2S2S2S2S2S2S2S2S2S2S29181:2:2:2:2:2:2:2:2:2:2:2:2:2:2:2:2:2:2:2:28191S2S2S2S2S2S2S2S2S2S2S2S2S2S2S271        ",
"        61S2S2S2S2S2S2S2S2S2S2S2S2S2S2S2S251L1:2:2:2:2:2:2:2:2:2:2:2:2:2:2:2:2:2:2L151S2S2S2S2S2S2S2S2S2S2S2S2S2S2S2S241        ",
"        31S2S2S2S2S2S2S2S2S2S2S2S2S2S2S2S22111x1:2:2:2:2:2:2:2:2:2:2:2:2:2:2:2:2x10121S2S2S2S2S2S2S2S2S2S2S2S2S2S2S2S231        ",
"        z0S2S2S2S2S2S2S2S2S2S2S2S2S2S2S2S2S2y0x0x1:2:2:2:2:2:2:2:2:2:2:2:2:2:2x1x0w0S2S2S2S2S2S2S2S2S2S2S2S2S2S2S2S2S2T2        ",
"        v0S2S2S2S2S2S2S2S2S2S2S2S2S2S2S2S2S2S2u0t0L1:2:2:2:2:2:2:2:2:2:2:2:2L1t0u0S2S2S2S2S2S2S2S2S2S2S2S2S2S2S2S2S2S2s0        ",
"        r0S2S2S2S2S2S2S2S2S2S2S2S2S2S2S2S2S2S2S2w0q0:2:2:2:2:2:2:2:2:2:2:2:2q0w0S2S2S2S2S2S2S2S2S2S2S2S2S2S2S2S2S2S2S2p0        ",
"        o0S2S2S2S2S2S2S2S2S2S2S2S2S2S2S2S2S2S2S2S221:2:2:2:2:2:2:2:2:2:2:2:221S2S2S2S2S2S2S2S2S2S2S2S2S2S2S2S2S2S2S2S2n0        ",
"        91S2S2S2S2S2S2S2S2S2S2S2S2S2S2S2S2S2S2S2S2S2:2:2:2:2:2:2:2:2:2:2:2:2S2S2S2S2S2S2S2S2S2S2S2S2S2S2S2S2S2S2S2S2S2m0        ",
"        l0S2S2S2S2S2S2S2S2S2S2S2S2S2S2S2S2S2S2S2S2S2:2:2:2:2:2:2:2:2:2:2:2:2S2S2S2S2S2S2S2S2S2S2S2S2S2S2S2S2S2S2S2S2S2l0        ",
"        k0S2S2S2S2S2S2S2S2S2S2S2S2S2S2S2S2S2S2S2S2S2:2:2j0j0:2:2:2:2:2:2:2:2i082S2S2S2S2S2S2S2S2S2S2S2S2S2S2S2S2S2S2S2u0        ",
"        h0S2S2S2S2S2S2S2S2S2S2S2S2S2S2S2S2S2S2S2S2S2:2:2S2S2:2:2:2:2:2:2:2:2:2g0f0S2S2S2S2S2S2S2S2S2S2S2S2S2S2S2S2S2S2h0        ",
"          S2S2S2S2S2S2S2S2S2S2S2S2S2S2S2S2S2S2S2S2S2:2:2S2S2:2:2:2:2:2:2:2:2:2:2e0d0S2S2S2S2S2S2S2S2S2S2S2S2S2S2S2S2S2          ",
"          c0S2S2S2S2S2S2S2S2S2S2S2S2S2S2S2S2S2S2S2S2:2:2S2S2:2:2:2:2:2:2:2:2:2:2b0a0S2S2S2S2S2S2S2S2S2S2S2S2S2S2S2S2c0          ",
"          k0S2S2S2S2S2S2S2S2S2S2S2S2S2S2S2S2S2S2S2S2:2:2S2S2:2:2:2:2:2:2:2:2:2Z0Y0X0S2S2S2S2S2S2S2S2S2S2S2S2S2S2S2S2k0          ",
"            S2S2S2S2S2S2S2S2S2S2S2S2S2S2S2S2S2S2S2S2:2:2S2S2:2:2:2:2:2:2:2:2W0V0U0S2S2S2S2S2S2S2S2S2S2S2S2S2S2S2S2S2            ",
"            n0S2S2S2S2S2S2S2S2S2S2S2S2S2S2S2S2S2S2S2:2:2S2S2:2:2:2:2:2:2:2:2T0S0S2S2S2S2S2S2S2S2S2S2S2S2S2S2S2S2S2o0            ",
"            R0S2S2S2S2S2S2S2S2S2S2S2S2S2S2S2S2S2S2S2:2:2S2S2:2:2:2:2:2:2:2:2S2S2S2S2S2S2S2S2S2S2S2S2S2S2S2S2S2S2S2Q0            ",
"              S0S2S2S2S2S2S2S2S2S2S2S2S2S2S2S2S2S2S2:2:2S2S2:2:2:2:2:2:2:2:2P0S2S2S2S2S2S2S2S2S2S2S2S2S2S2S2S2S2S0              ",
"              R0S2S2S2S2S2S2S2S2S2S2S2S2S2S2S2S2S2S2:2:2S2S2:2:2:2:2:2:2:2:252P0S2S2S2S2S2S2S2S2S2S2S2S2S2S2S2S2R0              ",
"                U0S2S2S2S2S2S2S2S2S2S2S2S2S2S2S2S2S2:2:2S2S2:2:2:2:2:2:2:2:2:2O0S2S2S2S2S2S2S2S2S2S2S2S2S2S2S291                ",
"                  S2S2S2S2S2S2S2S2S2S2S2S2S2S2S2S2S2:2:2S2S2:2:2:2:2:2:2:2:2N0M0S2S2S2S2S2S2S2S2S2S2S2S2S2S2S2                  ",
"                  L0S2S2S2S2S2S2S2S2S2S2S2S2S2S2S2S2:2:2:2:2:2:2:2:2:2:2:2:2K0S2S2S2S2S2S2S2S2S2S2S2S2S2S2S2J0                  ",
"                    I0S2S2S2S2S2S2S2S2S2S2S2S2S2S2S2x1:2:2:2:2:2:2:2:2:2:2x1S2S2S2S2S2S2S2S2S2S2S2S2S2S2S2H0                    ",
"                      G0S2S2S2S2S2S2S2S2S2S2S2S2S2S2F0E0:2:2:2:2:2:2:2:2E0D0S2S2S2S2S2S2S2S2S2S2S2S2S2S2t1                      ",
"                        21S2S2S2S2S2S2S2S2S2S2S2S2S2C0B042:2:2:2:2:2:2A0B0C0S2S2S2S2S2S2S2S2S2S2S2S2S221                        ",
"                          G0S2S2S2S2S2S2S2S2S2S2S2S2S2S0u1;0w1:2:2w1;0u1S0S2S2S2S2S2S2S2S2S2S2S2S2S2t1                          ",
"                            I0S2S2S2S2S2S2S2S2S2S2S2S2S2S2l0:0908070l0S2S2S2S2S2S2S2S2S2S2S2S2S2S2H0                            ",
"                              J0S2S2S2S2S2S2S2S2S2S2S2S2S2S2o06060c0S2S2S2S2S2S2S2S2S2S2S2S2S2S250                              ",
"                                  U0S2S2S2S2S2S2S2S2S2S2S2S2S2S2S2S2S2S2S2S2S2S2S2S2S2S2S2S2U0                                  ",
"                                    J0S0S2S2S2S2S2S2S2S2S2S2S2S2S2S2S2S2S2S2S2S2S2S2S2S2S0J0                                    ",
"                                        40n0S2S2S2S2S2S2S2S2S2S2S2S2S2S2S2S2S2S2S2S2n040                                        ",
"                                              30c0S2S2S2S2S2S2S2S2S2S2S2S2S2S2c030                                              ",
"                                                    2010w0m0n00000n0m0w01020                                                    ",
"                                                                                                                                ",
"                                                                                                                                ",
"                                                                                                                                ",
"                                                                                                                                "};
