/* XPM */
static char *image[] = {
"64 64 39 1",
"  c None",
"0 c #72afe9",
"1 c #6399cb",
"2 c #689ed2",
"3 c #679dd3",
"4 c #72aee8",
"5 c #5f91c1",
"6 c #679ed3",
"7 c #f2f6fa",
"8 c #b6cce2",
"9 c #6aa1d5",
": c #93bfea",
"; c #5f92c2",
"A c #74b1ec",
"B c #b4cbe1",
"C c #6ca1d5",
"D c #b5cde3",
"E c #8ebce9",
"F c #eff4f9",
"G c #689fd4",
"H c #5d8ebe",
"I c #80a6cc",
"J c #f0f6fb",
"K c #bfdbf6",
"L c #76b3ed",
"M c #c0dcf7",
"N c #f4f9fe",
"O c #f1f7fd",
"P c #bfdbf7",
"Q c #ffffff",
"R c #7eb7ee",
"S c #8bbff1",
"T c #74b2ed",
"U c #77b4ed",
"V c #81b9ef",
"W c #8abeef",
"X c #90c1f1",
"Y c #8ec0f0",
"Z c #89bef0",
"                                                                ",
"                                                                ",
"                                                                ",
"                                                                ",
"                                                                ",
"                                                                ",
"                                                                ",
"                                                                ",
"     ZYXXXXXXXXXXXXXXXXXXXXXXXXXXXXXXXXXXXXXXXXXXXXXXXXXXYZ     ",
"    WVUTTTTTTTTTTTTTTTTTTTTTTTTTTTTTTTTTTTTTTTTTTTTTTTTTTUVS    ",
"    RTTTTTTTTTTTTTTTTTTTTTTTTTTTTTTTTTTTTTTTTTTTTTTTTTTTTTTR    ",
"    UTTTTTTTTTTTTTTTTTTTTTTTTTTTTTTTTTTTTTTTTTTTTTTTTTTTTTTU    ",
"    TTTTTTTTTTTTTTTTTTTTTTTTTTTTTTTTTTTTTTTTTTTTTTTTTTTTTTTT    ",
"    TTTTTTTTTTTTTTTTTTTTTTTTTTTTTTTTTTTTTTTTTTTTTTTTTTTTTTTT    ",
"    TTTTTTTTQQTTTTTTTTTTTTTTTTTTTTTTTTTTTTTTTTTTTTTTTTTTTTTT    ",
"    TTTTTTTTQQTTTTTTTTTTTTTTTTTTTTTTTTTTTTTTTTTTTTTTTTTTTTTT    ",
"    TTTTUPOQQQQNMLTTTTTTTTTTTTTTTTTTTTTTTTTTTTTTTTTTTTTTTTTT    ",
"    TTTTKQQQQQQQQKTTTTTTTTTTTTTTTTTTTTTTTTTTTTTTTTTTTTTTTTTT    ",
"    TTTTJQIHQQHHHGTTTTTTTTTTTTTTTTTTTTTTTTTTTTTTTTTTTTTTTTTT    ",
"    TTTTFQETQQTTTTTTTTTTTTTTTTTTTTTTTTTTTTTTTTTTTTTTTTTTTTTT    ",
"    TTTTDQQQQQQOPUTTTTTTTTTTTTTTTTTTTTTTTTTTTTTTTTTTTTTTTTTT    ",
"    TTTTCBFQQQQQQKTTTTTTTTTTTTTTTTTTTTTTTTTTTTTTTTTTTTTTTTTT    ",
"    TTTTAG;HQQHIQJTTTTTTTTTTTTTTTTTTTTTTTTTTTTTTTTTTTTTTTTTT    ",
"    TTTTTTTTQQT:QFTTTTTTTTTTTTTTTTTTTTTTTTTTTTTTTTTTTTTTTTTT    ",
"    TTTTPQQQQQQQQDTTTTTTTTTTTTTTTTTTTTTTTTTTTTTTTTTTTTTTTTTT    ",
"    TTTT987QQQQFBCTTTTTTTTTTTTTTTTTTTTTTTTTTTTTTTTTTTTTTTTTT    ",
"    TTTTA65HQQH;GATTTTQQQQQQQQQQQQTTTTTTTTTTTTTTTTTTTTTTTTTT    ",
"    TTTTTTTTQQTTTTTTTTQQQQQQQQQQQQTTTTTTTTTTTTTTTTTTTTTTTTTT    ",
"    TTTTTTTTHHTTTTTTTTHHHHHHHHHHHHTTTTTTTTTTTTTTTTTTTTTTTTTT    ",
"    TTTTTTTTTTTTTTTTTTTTTTTTTTTTTTTTTTTTTTTTTTTTTTTTTTTTTTTT    ",
"    TTTTTTTTTTTTTTTTTTTTTTTTTTTTTTTTTTTTTTTTTTTTTTTTTTTTTTTT    ",
"    TTTTTTTTTTTTTTTTTTTTTTTTTTTTTTTTTTTTTTTTTTTTTTTTTTTTTTTT    ",
"    TTTTTTTTTTTTTTTTTTTTTTTTTTTTTTTTTTTTTTTTTTTTTTTTTTTTTTTT    ",
"    TTTTTTTTTTTTTTTTTTTTTTTTTTTTTTTTTTTTTTTTTTTTTTTTTTTTTTTT    ",
"    TTTTTTTTTTTTTTTTTTTTTTTTTTTTTTTTTTTTTTTTTTTTTTTTTTTTTTTT    ",
"    TTTTTTTTTTTTTTTTTTTTTTTTTTTTTTTTTTTTTTTTTTTTTTTTTTTTTTTT    ",
"    TTTTTTTTTTTTTTTTTTTTTTTTTTTTTTTTTTTTTTTTTTTTTTTTTTTTTTTT    ",
"    TTTTTTTTTTTTTTTTTTTTTTTTTTTTTTTTTTTTTTTTTTTTTTTTTTTTTTTT    ",
"    TTTTTTTTTTTTTTTTTTTTTTTTTTTTTTTTTTTTTTTTTTTTTTTTTTTTTTTT    ",
"    TTTTTTTTTTTTTTTTTTTTTTTTTTTTTTTTTTTTTTTTTTTTTTTTTTTTTTTT    ",
"    TTTTTTTTTTTTTTTTTTTTTTTTTTTTTTTTTTTTTTTTTTTTTTTTTTTTTTTT    ",
"    TTTTTTTTTTTTTTTTTTTTTTTTTTTTTTTTTTTTTTTTTTTTTTTTTTTTTTTT    ",
"    TTTTTTTTTTTTTTTTTTTTTTTTTTTTTTTTTTTTTTTTTTTTTTTTTTTTTTTT    ",
"    TTTTTTTTTTTTTTTTTTTTTTTTTTTTTTTTTTTTTTTTTTTTTTTTTTTTTTTT    ",
"    TTTTTTTTTTTTTTTTTTTTTTTTTTTTTTTTTTTTTTTTTTTTTTTTTTTTTTTT    ",
"    TTTTTTTTTTTTTTTTTTTTTTTTTTTTTTTTTTTTTTTTTTTTTTTTTTTTTTTT    ",
"    TTTTTTTTTTTTTTTTTTTTTTTTTTTTTTTTTTTTTTTTTTTTTTTTTTTTTTTT    ",
"    TTTTTTTTTTTTTTTTTTTTTTTTTTTTTTTTTTTTTTTTTTTTTTTTTTTTTTTT    ",
"    TTTTTTTTTTTTTTTTTTTTTTTTTTTTTTTTTTTTTTTTTTTTTTTTTTTTTTTT    ",
"    TTTTTTTTTTTTTTTTTTTTTTTTTTTTTTTTTTTTTTTTTTTTTTTTTTTTTTTT    ",
"    TTTTTTTTTTTTTTTTTTTTTTTTTTTTTTTTTTTTTTTTTTTTTTTTTTTTTTTT    ",
"    TTTTTTTTTTTTTTTTTTTTTTTTTTTTTTTTTTTTTTTTTTTTTTTTTTTTTTTT    ",
"    TTTTTTTTTTTTTTTTTTTTTTTTTTTTTTTTTTTTTTTTTTTTTTTTTTTTTTTT    ",
"    4TTTTTTTTTTTTTTTTTTTTTTTTTTTTTTTTTTTTTTTTTTTTTTTTTTTTTT4    ",
"    3TTTTTTTTTTTTTTTTTTTTTTTTTTTTTTTTTTTTTTTTTTTTTTTTTTTTTT2    ",
"     10TTTTTTTTTTTTTTTTTTTTTTTTTTTTTTTTTTTTTTTTTTTTTTTTTT01     ",
"                                                                ",
"                                                                ",
"                                                                ",
"                                                                ",
"                                                                ",
"                                                                ",
"                                                                ",
"                                                                "};
