/* XPM */
static char *image[] = {
"64 64 409 2",
"   c None",
"00 c #bbafda",
"10 c #d6cded",
"20 c #e4ddf5",
"30 c #fdfcfe",
"40 c #faf9fd",
"50 c #f1eefb",
"60 c #e8e1f7",
"70 c #dfd9f3",
"80 c #d5ccec",
"90 c #b7abd8",
":0 c #aca1c9",
";0 c #d2c8ec",
"A0 c #f1eef9",
"B0 c #d4ccea",
"C0 c #a296c1",
"D0 c #f1a636",
"E0 c #bbaedc",
"F0 c #e9e5f4",
"G0 c #b7acd3",
"H0 c #feaf38",
"I0 c #f7aa38",
"J0 c #c4b7e1",
"K0 c #f3f0fb",
"L0 c #f7f5fa",
"M0 c #b8add3",
"N0 c #eaa135",
"O0 c #9487ba",
"P0 c #ede8f8",
"Q0 c #e5e1f1",
"R0 c #8c7fa3",
"S0 c #faac38",
"T0 c #f0a536",
"U0 c #c4bae1",
"V0 c #f2cf9a",
"W0 c #f9ab37",
"X0 c #ddd6f1",
"Y0 c #f2ece4",
"Z0 c #fdb344",
"a0 c #fcb243",
"b0 c #f4c783",
"c0 c #feb84f",
"d0 c #f9f8fd",
"e0 c #efe3d0",
"f0 c #fde7cb",
"g0 c #8163d0",
"h0 c #af9ae6",
"i0 c #f2f1f0",
"j0 c #f9bc61",
"k0 c #ffd390",
"l0 c #f8f7fd",
"m0 c #c5b6ed",
"n0 c #f3cb90",
"o0 c #febc59",
"p0 c #fffdf9",
"q0 c #f5f3fc",
"r0 c #7c5ec8",
"s0 c #dbd1f3",
"t0 c #eedcc0",
"u0 c #fff0da",
"v0 c #f2effb",
"w0 c #f5f3fb",
"x0 c #f0ebe4",
"y0 c #fcb74e",
"z0 c #efecf9",
"01 c #b8a5e8",
"11 c #f3f3f3",
"21 c #f6c274",
"31 c #ffd89e",
"41 c #ece8f8",
"51 c #8464d3",
"61 c #e8e2f6",
"71 c #f2cc93",
"81 c #ffcd80",
"91 c #7358b9",
":1 c #a58de2",
";1 c #efd2a6",
"A1 c #d8cef1",
"B1 c #7258b8",
"C1 c #dbd3f0",
"D1 c #f6f6f6",
"E1 c #eed6b2",
"F1 c #ffc876",
"G1 c #c9bbec",
"H1 c #7357b8",
"I1 c #b29ee5",
"J1 c #efd4ab",
"K1 c #ffca79",
"L1 c #bba9e8",
"M1 c #8e70db",
"N1 c #f0d2a4",
"O1 c #ffd089",
"P1 c #ac96e5",
"Q1 c #f4f2f9",
"R1 c #edeceb",
"S1 c #f4c988",
"T1 c #ffb23e",
"U1 c #ffe0b1",
"V1 c #9679de",
"W1 c #7c5ec7",
"X1 c #8566d6",
"Y1 c #e7e2f2",
"Z1 c #ebe5dc",
"a1 c #f8be67",
"b1 c #ffb950",
"c1 c #ffeed5",
"d1 c #f1eef8",
"e1 c #8565d6",
"f1 c #8665d6",
"g1 c #8365d3",
"h1 c #f8f6fb",
"i1 c #edd6b4",
"j1 c #fcb64d",
"k1 c #ffb03a",
"l1 c #ffcf87",
"m1 c #fffaf3",
"n1 c #cdc0ec",
"o1 c #9a77b1",
"p1 c #8a72c7",
"q1 c #eae4da",
"r1 c #f6c377",
"s1 c #ffbb54",
"t1 c #ffebcd",
"u1 c #a48ce2",
"v1 c #a3789d",
"w1 c #f9b14a",
"x1 c #755abe",
"y1 c #7c5ec6",
"z1 c #8061cd",
"02 c #c8bfe1",
"12 c #e9e6e1",
"22 c #fdb446",
"32 c #ffb74b",
"42 c #fffdfa",
"52 c #e1dbf1",
"62 c #7e61c6",
"72 c #be887d",
"82 c #feb03b",
"92 c #f8b456",
":2 c #7b5dc7",
";2 c #8062cd",
"A2 c #7b5ec6",
"B2 c #9582c4",
"C2 c #f9f9f9",
"D2 c #e8e5df",
"E2 c #f1cd97",
"F2 c #fdb548",
"G2 c #ffb94f",
"H2 c #ffdaa3",
"I2 c #fffcf6",
"J2 c #f5f5f5",
"K2 c #a789b7",
"L2 c #e49f55",
"M2 c #eeb471",
"N2 c #8162cf",
"O2 c #8464d4",
"P2 c #8062ce",
"Q2 c #7458ba",
"R2 c #aa9bd0",
"S2 c #ecd8ba",
"T2 c #f6c67d",
"U2 c #feb444",
"V2 c #ffe6bf",
"W2 c #deb997",
"X2 c #faad3e",
"Y2 c #d4aaa4",
"Z2 c #8364d3",
"a2 c #8466d6",
"b2 c #8465d5",
"c2 c #8263d1",
"d2 c #7f62cd",
"e2 c #785cc2",
"f2 c #8a77ba",
"g2 c #c7c0da",
"h2 c #efefef",
"i2 c #ebebeb",
"j2 c #ece4d9",
"k2 c #f2d9b2",
"l2 c #f9cd8a",
"m2 c #feb84e",
"n2 c #ffb546",
"o2 c #ffdfb0",
"p2 c #fff8ee",
"q2 c #e9dece",
"r2 c #f6bd68",
"s2 c #ffc56e",
"t2 c #a186dd",
"u2 c #8566d7",
"v2 c #6f55b3",
"w2 c #6c52ae",
"x2 c #6d53ae",
"y2 c #6e55af",
"z2 c #7962b5",
"03 c #856fbc",
"13 c #947fbf",
"23 c #bfa5b9",
"33 c #f0d6ba",
"43 c #fedead",
"53 c #fed699",
"63 c #ffcc7f",
"73 c #ffbf5f",
"83 c #ffbb55",
"93 c #ffd492",
":3 c #ffe4bb",
";3 c #fff4e4",
"A3 c #eae2d5",
"B3 c #f5c67f",
"C3 c #ffd493",
"D3 c #faf7f9",
"E3 c #8667d8",
"F3 c #8768d8",
"G3 c #f0edf8",
"H3 c #fff9ef",
"I3 c #f7f7f7",
"J3 c #ededed",
"K3 c #e9dfd0",
"L3 c #f4c886",
"M3 c #feb13e",
"N3 c #d9cff3",
"O3 c #8668d8",
"P3 c #d1c6ee",
"Q3 c #f1f1f1",
"R3 c #e9e8e7",
"S3 c #eed6b1",
"T3 c #f8c06b",
"U3 c #ffb13b",
"V3 c #ffb13c",
"W3 c #ffc46b",
"X3 c #8667d7",
"Y3 c #8766d6",
"Z3 c #a188e1",
"a3 c #f4f4f4",
"b3 c #f0f0f0",
"c3 c #edebe8",
"d3 c #f3debf",
"e3 c #f9ce8e",
"f3 c #feb74d",
"g3 c #ffc164",
"h3 c #ffd18c",
"i3 c #ffe3b8",
"j3 c #8667d5",
"k3 c #8567d3",
"l3 c #cbbeee",
"m3 c #fdfdfd",
"n3 c #fafafa",
"o3 c #f8f8f8",
"p3 c #f9f6f1",
"q3 c #fdeed6",
"r3 c #ffddaa",
"s3 c #ffd08a",
"t3 c #ffc772",
"u3 c #ffce84",
"v3 c #ffd89c",
"w3 c #ffe2b6",
"x3 c #fff0d9",
"y3 c #fffefc",
"z3 c #d5cbf2",
"04 c #8567d2",
"14 c #e6e0f6",
"24 c #fff9f1",
"34 c #fff4e3",
"44 c #ffefd6",
"54 c #ffeacb",
"64 c #ffecd0",
"74 c #fff6e8",
"84 c #fffefd",
"94 c #9f85e0",
":4 c #8366ce",
";4 c #efeafa",
"A4 c #dcd4f1",
"B4 c #ded5f4",
"C4 c #a48de2",
"D4 c #8a6ad8",
"E4 c #b09be6",
"F4 c #ece7f9",
"G4 c #5d5d5d",
"H4 c #4a4a4a",
"I4 c #6e6e6e",
"J4 c #b2b2b2",
"K4 c #fcfcfc",
"L4 c #d0c5eb",
"M4 c #896ad8",
"N4 c #a992e4",
"O4 c #cfc2f0",
"P4 c #f1edfa",
"Q4 c #8a8a8a",
"R4 c #747474",
"S4 c #fbfbfb",
"T4 c #efecf7",
"U4 c #8d70da",
"V4 c #8a6cd6",
"W4 c #d8cef2",
"X4 c #e8e8e8",
"Y4 c #494949",
"Z4 c #3f3f3f",
"a4 c #b4b4b4",
"b4 c #fefefe",
"c4 c #8b6dd9",
"d4 c #dfdfdf",
"e4 c #777777",
"f4 c #4d4d4d",
"g4 c #4e4e4e",
"h4 c #797979",
"i4 c #fcfbfd",
"j4 c #ac98e0",
"k4 c #8a6cd9",
"l4 c #8e73d8",
"m4 c #c2b2ec",
"n4 c #fefeff",
"o4 c #f7f6fb",
"p4 c #a48de0",
"q4 c #8f72d8",
"r4 c #b19ce6",
"s4 c #fcfbfe",
"t4 c #ddd4f3",
"u4 c #9a7fdf",
"v4 c #8c6eda",
"w4 c #a28ae2",
"x4 c #f2eefb",
"y4 c #fffdfb",
"z4 c #f4e0cb",
"05 c #ddd6ed",
"15 c #e6e0f5",
"25 c #dad0f2",
"35 c #c4b4ec",
"45 c #9d83e0",
"55 c #9172db",
"65 c #cbbdee",
"75 c #fefdfe",
"85 c #fff9f0",
"95 c #ffba51",
":5 c #ffb039",
";5 c #fab34d",
"A5 c #cd9d83",
"B5 c #97759d",
"C5 c #7156ae",
"D5 c #7257b8",
"E5 c #765abd",
"F5 c #795cc2",
"G5 c #7c5fc8",
"H5 c #8666d7",
"I5 c #8e70d9",
"J5 c #9d82e0",
"K5 c #d5caf2",
"L5 c #ffeed4",
"M5 c #ffd18b",
"N5 c #ffc977",
"O5 c #ffc062",
"P5 c #ffb84d",
"Q5 c #ffb23d",
"R5 c #ffb23f",
"S5 c #f8b85f",
"T5 c #edb777",
"U5 c #dfb295",
"V5 c #c6a6be",
"W5 c #906fd7",
"X5 c #9175dc",
"Y5 c #9578dd",
"Z5 c #c7b9ed",
"a5 c #eee9f9",
"b5 c #ffffff",
"c5 c #fbfafd",
"d5 c #ddd4f2",
"e5 c #b39fe7",
"f5 c #9074dc",
"g5 c #967ade",
"h5 c #b7a4e8",
"i5 c #d3c7f1",
"j5 c #dfd6f5",
"k5 c #eae4f8",
"l5 c #f5f2fc",
"m5 c #fdfdfe",
"n5 c #fbfafe",
"o5 c #f7f5fc",
"p5 c #efebfa",
"q5 c #e1d9f6",
"r5 c #d2c6f1",
"s5 c #beacea",
"t5 c #a289e1",
"u5 c #896ada",
"v5 c #9174dc",
"w5 c #9074db",
"x5 c #9173db",
"y5 c #8969da",
"z5 c #9073da",
"06 c #9274dd",
"16 c #9374dd",
"26 c #8f72dc",
"36 c #8d6edb",
"46 c #9275dc",
"56 c #8d6fdb",
"66 c #9176dd",
"76 c #8767d9",
"86 c #8b6cda",
"96 c #8f71dc",
":6 c #9274dc",
";6 c #8768d9",
"A6 c #8868d9",
"B6 c #8869d9",
"C6 c #8a6bda",
"D6 c #8c6dda",
"E6 c #8e6fdb",
"F6 c #9073dc",
"G6 c #9275dd",
"H6 c #9376dd",
"I6 c #9375dd",
"J6 c #9375dc",
"K6 c #9375de",
"L6 c #9174dd",
"                                                                                                                                ",
"                                                                                                                                ",
"                                                                                                                                ",
"                                                                                                                                ",
"                                                      L6K6J6I6H6H6I6J6K6L6                                                      ",
"                                              J6G6F6E6D6C6B6A6;6;6A6B6C6D6E6F6G6J6                                              ",
"                                        :6G69686;67676767676767676767676767676;68696G6:6                                        ",
"                                    66:656A67676767676767676767676767676767676767676A656:646                                    ",
"                                  J636;6767676767676767676767676767676767676767676767676;656J6                                  ",
"                              6626B676767676767676767676767676767676767676767676767676767676B62646                              ",
"                            1636767676767676767676767676767676767676767676767676767676767676767656I6                            ",
"                          0686767676767676767676767676767676767676767676767676767676767676767676768606                          ",
"                        z5y5767676767676767676767676767676767676767676767676767676767676767676767676y5z5                        ",
"                      x5B67676767676767676767676767676767676767676767676767676767676767676767676767676B6w5                      ",
"                    v5u57676767676767676C6t5s5r5q5p5o5n5m5l5k5j5i5h5g57676767676767676767676767676767676u5f5                    ",
"                  468676767676767656e5d5c5b5b5b5b5b5b5b5b5b5b5b5b5b5b5a5Z5Y576767676767676767676767676767686X5                  ",
"                  36767676767676W5V5U5T5S5R5Q5P5O5N5M5L5b5b5b5b5b5b5b5b5b5m5K5J5767676767676767676767676767636                  ",
"                I576767676767676H5G5F5E5D5C5B5A5;5:59585b5b5b5b5b5b5b5b5b5b5b575653676767676767676767676767676I5                ",
"              55B676767676767676767676764535251505z4y4b5b5b5b5b5b5b5b5b5b5b5b5b5b5x4w4767676767676767676767676B655              ",
"              v476767676767676767676u4t4b5b5b5b5b5b5b5b5b5b5b5b5b5b5b5b5b5b5b5b5b5b5s4r4767676767676767676767676v4              ",
"            q4;6767676767676767676p4o4b5b5b5b5b5b5b5b5b5b5b5b5b5b5b5b5b5b5b5b5b5b5b5b5n4m47676767676767676767676A6l4            ",
"            k4767676767676767676j4i4b5b5b5b5b5b5b5b5b5b5b5b5b5b5b5b5b5b5b5b5h4g4f4e4d4b5b5r5B676767676767676767676c4            ",
"            A67676767676767676p4b4b5b5b5b5b5b5b5b5b5b5b5b5b5b5b5b5b5b5b5b5b5a4Z4Z4Z4Y4X4b5b5W4u5767676767676767676B6            ",
"          V47676767676767676U4T4b5b5b5b5b5b5b5b5b5b5b5b5b5b5b5b5b5b5b5b5b5b5S4R4Z4Z4Z4Q4b5b5b5P4O4N4;676767676767676V4          ",
"          M47676767676767676L4b5b5b5b5b5b5b5b5b5b5b5b5b5b5b5b5b5b5b5b5b5b5b5b5K4J4I4H4G4b5b5b5b5b5b5F4E4767676767676D4          ",
"          A676767676767676C4b5b5b5b5b5b5b5b5b5b5b5b5b5b5b5b5b5b5b5b5b5b5b5b5b5b5b5b5b5b5b5b5b5b5b5b5b5b5B4F676767676A6          ",
"          7676767676767676A4b5b5b5b5b5b5b5b5b5b5b5b5b5b5b5b5b5b5b5b5b5b5b5b5b5b5b5b5b5b5b5b5b5b5b5b5b5b5b5;4g576767676          ",
"        :47676767676767694b5b5b5b5b5b5b5b5b5b5b5b5b5b5b5b58474645444342484b5b5b5b5b5b5b5b5b5b5b5b5b5b5b5b5b514C6767676:4        ",
"        0476767676767676z3b5b5b5b5b5b5b5b5b5y3x3w3v3u3t3s3r3q3p3o3n3S4m3b5b5b5b5b5b5b5b5b5b5b5b5b5b5b5b5b5b5b5l3767676k3        ",
"        j376767676767656c5b5b5b5b5b524i3h3g3R5:5f3e3d3c3b3a3n3b4b5b5b5b5b5b5b5b5b5b5b5b5b5b5b5b5b5b5b5b5b5b5b5b5Z37676Y3        ",
"        X3767676767676r4b5b5b574r3W3V3:5:5U3T3S3R3Q3o3b4b5b5b5b5b5b5b5b5b5b5b5b5b5b5b5b5b5b5b5b5b5b5b5b5b5b5b5b5P37676X3        ",
"        O3767676767676N3b574u3U3:5:5:5M3L3K3J3I3b5b5b5b5b5b5b5b5b5b5b5b5b5b5b5b5b5b5b5b584H3H3y4b5b5b5b5n4m5b4n4G37676F3        ",
"        E37676767676y5D3C3R5:5:5:5V3B3A3Q3K4b5b5b5b5b5b5b5b5b5b5b5b5b5b5b5b5;3:393W3837363534333231303z2y2x2w2w2v27676E3        ",
"        u27676767676t2s2:5:5:5:5r2q2b3K4b5b5b5b5b5b5b5b5b5b5b5b5b5b5p2o2t3n2:5m2l2k2j2i2h2g2f2w2e2d2c2b2E3767676767676a2        ",
"        Z27676767676Y2:5:5:5X2W2J3K4b5b5b5b5b5b5b5b5b5b5b5b5b584V2s2U3:5U2T2S2R3Q3I3m3i4R2Q2P2767676767676767676767676O2        ",
"        N27676767676M2:5:5L2K2J2b5b5b5b5b5b5b5b5b5b5b5b5b5I2H2G2:5:5F2E2D2b3C2b5b5b5b5B2A27676767676767676767676767676;2        ",
"        :276767676769282726252b5b5b5b5b5b5b5b5b5b5b5b542r332:5:522E212a3b4b5b5b5b5b502z1767676767676767676767676767676y1        ",
"        x17676767676w1v1P2u1b5b5b5b5b5b5b5b5b5b5b5b5t1s1:5:5:5r1q1a3b4b5b5b5b5b5b5b5p176767676767676767676767676767676x1        ",
"          7676767676o1Z276n1b5b5b5b5b5b5b5b5b5b5m1l1k1:5:5j1i1h2m3b5b5b5b5b5b5b5b5h1g176767676767676767676767676767676          ",
"          f176767676e17676d1b5b5b5b5b5b5b5b5b5c1b1:5:5:5a1Z1o3b5b5b5b5b5b5b5b5b5b5Y176767676767676767676767676767676X1          ",
"          W1767676767676V1b5b5b5b5b5b5b5b5b5U1T1:5:5:5S1R1m3b5b5b5b5b5b5b5b5b5b5b5Q176767676767676767676767676767676W1          ",
"            767676767676P1b5b5b5b5b5b5b5y3O1:5:5:5U3N1Q3b5b5b5b5b5b5b5b5b5b5b5b5b5b5M1767676767676767676767676767676            ",
"            a27676767676L1b5b5b5b5b5b5y4K1:5:5:5Q5J1J2b5b5b5b5b5b5b5b5b5b5b5b5b5b5b5I17676767676767676767676767676e1            ",
"            H17676767676G1b5b5b5b5b542F1:5:5:5Q5E1D1b5b5b5b5b5b5b5b5b5b5b5b5b5b5b5b5C17676767676767676767676767676B1            ",
"              H576767676A1b5b5b5b542t3:5:5:5:5;1I3b5b5b5b5b5b5b5b5b5b5b5b5b5b5b5b5b5b5:1767676767676767676767676H5              ",
"              917676767614b5b5b5b581:5:5:5:571D1b5b5b5b5b5b5b5b5b5b5b5b5b5b5b5b5b5b5b561B6767676767676767676767691              ",
"                5176767641b5b5b531:5:5:5:52111b5b5b5b5b5b5b5b5b5b5b5b5b5b5b5b5b5b5b5b5b50176767676767676767676Z2                ",
"                  767676z0b5b5:3k1:5:5:5y0x0b5b5b5b5b5b5b5b5b5b5b5b5b5b5b5b5b5b5b5b5b5b5w096767676767676767676                  ",
"                  H17676v0b5u0R5:5:5:5U3t0b4b5b5b5b5b5b5b5b5b5b5b5b5b5b5b5b5b5b5b5b5b5b5b5s0A676767676767676B1                  ",
"                    r076q0p0o0:5:5:5:5n0C2b5b5b5b5b5b5b5b5b5b5b5b5b5b5b5b5b5b5b5b5b5b5b5b5b5m0767676767676W1                    ",
"                      c2l0k0:5:5:5:5j0i0b5b5b5b5b5b5b5b5b5b5b5b5b5b5b5b5b5b5b5b5b5b5b5b5b5b5b5h076767676g0                      ",
"                        f0k1:5:5:5V3e0b5b5b5b5b5b5b5b5b5b5b5b5b5b5b5b5b5b5b5b5b5b5b5b5b5b5b5b5d0Z37676b2                        ",
"                        c0:5:5:5:5b0S4b5b5b5b5b5b5b5b5b5b5b5b5b5b5b5b5b5b5b5b5b5b5b5b5b5b5b5b5b5o594g0                          ",
"                        a0:5:5:5Z0Y0b5b5b5b5b5b5b5b5b5b5b5b5b5b5b5b5b5b5b5b5b5b5b5b5b5b5b5b5b5b5b5X0                            ",
"                        W0:5:5:5V0m3b5b5b5b5b5b5b5b5b5b5b5b5b5b5b5b5b5b5b5b5b5b5b5b5b5b5b5b5b5s4U0                              ",
"                        T0:5:5S0R0Q0b5b5b5b5b5b5b5b5b5b5b5b5b5b5b5b5b5b5b5b5b5b5b5b5b5b5b5b5P0O0                                ",
"                          :5:5N0    M0L0b5b5b5b5b5b5b5b5b5b5b5b5b5b5b5b5b5b5b5b5b5b5b5b5K0J0                                    ",
"                          I0H0          G0F0b5b5b5b5b5b5b5b5b5b5b5b5b5b5b5b5b5b5b5b5p5E0                                        ",
"                            D0              C0B0A0b5b5b5b5b5b5b5b5b5b5b5b5b5b5p5;0:0                                            ",
"                                                    90807060504030o5P4201000                                                    ",
"                                                                                                                                ",
"                                                                                                                                ",
"                                                                                                                                ",
"                                                                                                                                "};
