/* XPM */
static char *image[] = {
"64 64 85 2",
"   c None",
"00 c #eb4033",
"10 c #e33e31",
"20 c #d53b2f",
"30 c #d73b2f",
"40 c #f04135",
"50 c #c5362b",
"60 c #cc382c",
"70 c #f14135",
"80 c #d67a73",
"90 c #c2bbbb",
":0 c #c1c1c1",
";0 c #e73f33",
"A0 c #e75b51",
"B0 c #c2b0af",
"C0 c #dcdcdc",
"D0 c #c5c5c5",
"E0 c #c6a6a4",
"F0 c #ed4133",
"G0 c #ed4f43",
"H0 c #c5b3b2",
"I0 c #e2e2e2",
"J0 c #e83f33",
"K0 c #e85c52",
"L0 c #cfc8c8",
"M0 c #cf382c",
"N0 c #d77b74",
"O0 c #e0e0e0",
"P0 c #f1473a",
"Q0 c #cdbbb9",
"R0 c #db3c30",
"S0 c #de736b",
"T0 c #e3e3e3",
"U0 c #f24235",
"V0 c #f2493d",
"W0 c #d8d3d2",
"X0 c #d7a5a1",
"Y0 c #e43f32",
"Z0 c #e47d75",
"a0 c #ee4033",
"b0 c #ec675e",
"c0 c #f14235",
"d0 c #ef584d",
"e0 c #feedec",
"f0 c #feeae9",
"g0 c #f88b83",
"h0 c #f34236",
"i0 c #fffefe",
"j0 c #f7857d",
"k0 c #f3493d",
"l0 c #e5dfdf",
"m0 c #f34335",
"n0 c #fbc3bf",
"o0 c #ffffff",
"p0 c #feeeed",
"q0 c #f56055",
"r0 c #f34639",
"s0 c #fbbfbb",
"t0 c #feeae8",
"u0 c #f56156",
"v0 c #ef6359",
"w0 c #f15247",
"x0 c #e6d4d2",
"y0 c #f15347",
"z0 c #e7c7c5",
"01 c #f44235",
"11 c #f0645a",
"21 c #e6d4d3",
"31 c #f34234",
"41 c #f2483b",
"51 c #ec9089",
"61 c #e5dede",
"71 c #f34235",
"81 c #ed827a",
"91 c #e6d3d2",
":1 c #f34a3e",
";1 c #f15a4f",
"A1 c #ef6a61",
"B1 c #ed867e",
"C1 c #e9b7b3",
"D1 c #e5e0df",
"E1 c #e4e4e4",
"F1 c #e5e5e5",
"G1 c #e7e7e7",
"H1 c #e6e6e6",
"                                                                                                                                ",
"                                                                                                                                ",
"                                                                                                                                ",
"                                                                                                                                ",
"                      H1G1G1G1G1G1G1G1G1G1G1G1G1G1G1G1G1G1G1G1G1G1G1G1G1G1G1G1G1G1G1G1G1G1G1G1G1G1G1G1G1H1                      ",
"                    H1F1E1E1E1E1E1E1E1E1E1E1E1E1E1E1E1E1E1E1E1E1E1E1E1E1E1E1E1E1E1E1E1E1E1E1E1E1E1E1E1E1F1H1                    ",
"                    H1E1E1E1E1E1E1E1E1E1E1E1E1E1E1E1E1E1E1E1E1E1E1E1E1E1E1E1E1E1E1E1E1E1E1E1E1E1E1E1E1E1E1H1                    ",
"                    E1E1E1E1E1E1E1E1E1E1E1E1E1E1E1E1E1E1E1E1E1E1E1E1E1E1E1E1E1E1E1E1E1E1E1E1E1E1E1E1E1E1E1E1                    ",
"                    E1E1E1E1E1E1E1E1E1E1E1E1E1E1E1E1E1E1E1E1E1E1E1E1E1E1E1E1E1E1E1E1E1E1E1E1E1E1E1E1E1E1E1E1                    ",
"                    E1E1E1E1E1E1E1E1E1E1E1E1E1E1E1E1E1E1E1E1E1E1E1E1E1E1E1E1E1E1E1E1E1E1E1E1E1E1E1E1E1E1E1E1                    ",
"                    E1E1E1E1E1E1E1E1E1E1E1E1E1E1E1E1E1E1E1E1E1E1E1E1E1E1E1E1E1E1E1E1E1E1E1E1E1E1E1E1E1E1E1E1                    ",
"                    E1E1E1E1E1E1E1E1E1E1E1E1E1E1E1E1E1E1E1E1E1E1E1E1E1E1E1E1E1E1E1E1E1E1E1E1E1E1E1E1E1E1E1E1                    ",
"                    E1E1E1E1E1E1E1E1E1E1E1E1E1E1E1E1E1E1E1E1E1E1E1E1E1E1E1E1E1E1E1E1E1E1E1E1E1E1E1E1E1E1E1E1                    ",
"                    E1E1E1E1E1E1E1E1E1E1E1E1E1E1E1E1E1E1E1E1E1E1E1E1E1E1E1E1E1E1E1E1E1E1E1E1E1E1E1E1E1E1E1E1                    ",
"                    E1E1E1E1E1E1E1E1E1E1E1E1E1E1E1E1E1E1E1E1E1E1E1E1E1E1E1E1E1E1E1E1E1E1E1E1E1E1E1E1E1E1E1E1                    ",
"                    E1E1E1E1E1E1E1E1E1E1E1E1E1E1E1E1E1E1E1E1E1E1E1E1E1E1E1E1E1E1E1E1E1E1E1E1E1E1E1E1E1E1E1E1                    ",
"                    E1E1E1E1E1E1E1E1E1E1E1E1E1E1E1E1E1E1E1E1E1E1E1E1E1E1E1E1E1E1E1E1E1E1E1E1E1E1E1E1E1E1E1E1                    ",
"                    E1E1E1E1E1E1E1E1E1E1E1E1E1E1E1E1E1E1E1E1E1E1E1E1E1E1E1E1E1E1E1E1E1E1E1E1E1E1E1E1E1E1E1E1                    ",
"                    E1E1E1E1E1E1E1E1E1E1E1E1E1E1E1E1E1E1E1E1E1E1E1E1E1E1E1E1E1E1E1E1E1E1E1E1E1E1E1E1E1E1E1E1                    ",
"                    E1E1E1E1E1E1E1E1E1E1E1E1E1E1E1E1E1E1E1E1E1E1E1E1E1E1E1E1E1E1E1E1E1E1E1E1E1E1E1E1E1E1E1E1                    ",
"                    E1E1E1E1E1E1E1E1E1E1E1E1E1E1E1E1E1E1E1E1E1E1E1E1E1E1E1E1E1E1E1E1E1E1E1E1E1E1E1E1E1E1E1E1                    ",
"                    E1E1E1E1E1E1E1E1E1E1E1E1E1E1E1E1E1E1E1E1E1E1E1E1E1E1E1E1E1E1E1E1E1E1E1E1E1E1E1E1E1E1E1E1                    ",
"                    E1E1E1E1E1E1E1E1E1E1E1E1E1E1E1E1E1E1E1E1E1E1E1E1E1E1E1E1E1E1E1E1E1E1E1E1E1E1E1E1E1E1E1E1                    ",
"                    E1E1E1E1E1E1E1E1E1E1E1E1E1E1E1E1E1E1E1E1E1E1E1E1E1E1E1E1E1E1E1E1E1E1E1E1E1E1E1E1E1E1E1E1                    ",
"                    E1E1E1E1E1E1E1E1E1E1E1E1E1E1E1E1E1E1E1E1E1E1E1E1E1E1E1E1E1E1E1E1E1E1E1E1E1E1E1E1E1E1E1E1                    ",
"                    E1E1E1E1E1E1E1E1E1E1E1E1E1E1E1E1E1E1E1E1E1E1E1E1E1E1E1E1E1E1E1E1E1E1E1E1E1E1E1E1E1E1E1E1                    ",
"                    E1E1E1E1E1E1E1E1E1E1E1E1E1E1E1E1E1E1E1E1E1E1E1E1E1E1E1E1E1E1E1E1E1E1E1E1E1E1E1E1E1E1E1E1                    ",
"                    E1E1E1E1E1E1E1E1E1E1E1E1E1E1E1E1E1E1E1E1E1E1E1E1E1E1E1E1E1E1E1E1E1E1E1E1E1E1E1E1E1E1E1E1                    ",
"                    E1E1E1E1E1E1E1E1E1E1E1E1E1E1E1E1E1E1E1E1E1E1E1E1E1E1E1E1E1E1E1E1E1E1E1E1E1E1E1E1E1E1E1E1                    ",
"                    E1E1E1E1E1E1E1E1E1E1E1E1E1E1E1E1E1E1E1E1E1E1E1E1E1E1E1E1E1E1E1E1E1E1E1E1E1E1E1E1E1E1E1E1                    ",
"                    E1E1E1E1E1E1E1E1E1E1E1E1E1E1E1E1E1E1E1E1E1E1E1E1E1E1E1E1E1E1E1E1D1C1B1A1;1:1:1;1A1B1C1D1                    ",
"                    E1E1E1E1E1E1E1E1E1E1E1E1E1E1E1E1E1E1E1E1E1E1E1E1E1E1E1E1E1E19181:171717171717171717171:171                  ",
"                    E1E1E1E1E1E1E1E1E1E1E1E1E1E1E1E1E1E1E1E1E1E1E1E1E1E1E1E161514171717171717171717171717171717131              ",
"                    E1E1E1E1E1E1E1E1E1E1E1E1E1E1E1E1E1E1E1E1E1E1E1E1E1E1E1211171717171717171717171717171717171717101            ",
"                    E1E1E1E1E1E1E1E1E1E1E1E1E1E1E1E1E1E1E1E1E1E1E1E1E1E1z0y0717171717171717171717171717171717171717171          ",
"                    E1E1E1E1E1E1E1E1E1E1E1E1E1E1E1E1E1E1E1E1E1E1E1E1E1x0w07171717171717171717171717171717171717171717171        ",
"                    E1E1E1E1E1E1E1E1E1E1E1E1E1E1E1E1E1E1E1E1E1E1E1E161v071717171717171717171717171717171717171717171717101      ",
"                    E1E1E1E1E1E1E1E1E1E1E1E1E1E1E1E1E1E1E1E1E1E1E1E151717171717171717171717171717171717171717171717171717131    ",
"                    E1E1E1E1E1E1E1E1E1E1E1E1E1E1E1E1E1E1E1E1E1E1E1914171717171717171717171717171717171u0t0s0r071717171717171    ",
"                    E1E1E1E1E1E1E1E1E1E1E1E1E1E1E1E1E1E1E1E1E1E1E18171717171717171717171717171717171q0p0o0o0n0r0717171717171m0  ",
"                    E1E1E1E1E1E1E1E1E1E1E1E1E1E1E1E1E1E1E1E1E1E1l0k071717171717171717171717171717171j0i0o0o0o0s0717171717171h0  ",
"                    E1E1E1E1E1E1E1E1E1E1E1E1E1E1E1E1E1E1E1E1E1E1C1717171717171717171717171717171q0q071g0i0o0o0f071717171717171  ",
"                    E1E1E1E1E1E1E1E1E1E1E1E1E1E1E1E1E1E1E1E1E1E1B17171717171717171717171717171q0e0e0q071g0i0e0q071717171717171m0",
"                    E1E1E1E1E1E1E1E1E1E1E1E1E1E1E1E1E1E1E1E1E1E1A171717171717171717171717171q0e0o0o0e0q071j0q0717171717171717131",
"                    E1E1E1E1E1E1E1E1E1E1E1E1E1E1E1E1E1E1E1E1E1E1;1717171717171717171717171q0e0o0o0o0o0e0q07171717171717171717171",
"                    E1E1E1E1E1E1E1E1E1E1E1E1E1E1E1E1E1E1E1E1E1E1:17171717171717171717171q0e0o0o0o0o0o0e0q071717171717171717171h0",
"                    E1E1E1E1E1E1E1E1E1E1E1E1E1E1E1E1E1E1E1E1E1E1:171717171717171717171q0e0o0o0o0o0o0e0q07171717171717171717171h0",
"                    E1E1E1E1E1E1E1E1E1E1E1E1E1E1E1E1E1E1E1E1E1E1d0717171717171717171q0e0o0o0o0o0o0e0q0717171717171717171717171c0",
"                    E1E1E1E1E1E1E1E1E1E1E1E1E1E1E1E1E1E1E1E1E1E1b07171717171717171q0e0o0o0o0o0o0e0q071717171717171717171717171a0",
"                    E1E1E1E1E1E1E1E1E1E1E1E1E1E1E1E1E1E1E1E1E1E1Z071717171717171q0e0o0o0o0o0o0e0q07171717171717171717171717171Y0",
"                    E1E1E1E1E1E1E1E1E1E1E1E1E1E1E1E1E1E1E1E1E1E1X071717171717171e0o0o0o0o0o0e0q0717171717171717171717171717171  ",
"                    E1E1E1E1E1E1E1E1E1E1E1E1E1E1E1E1E1E1E1E1E1E1W0V0717171717171o0o0o0o0o0e0q0717171717171717171717171717171U0  ",
"                    E1E1E1E1E1E1E1E1E1E1E1E1E1E1E1E1E1E1E1E1E1E1T0S0717171717171o0o0o0o0e0q071717171717171717171717171717171R0  ",
"                    E1E1E1E1E1E1E1E1E1E1E1E1E1E1E1E1E1E1E1E1E1E1E1Q0P07171717171o0o0o0e0q071717171717171717171717171717171U0    ",
"                    E1E1E1E1E1E1E1E1E1E1E1E1E1E1E1E1E1E1E1E1E1E1E1O0N07171717171717171717171717171717171717171717171717171M0    ",
"                    E1E1E1E1E1E1E1E1E1E1E1E1E1E1E1E1E1E1E1E1E1E1E1E1L0K0717171717171717171717171717171717171717171717171J0      ",
"                    E1E1E1E1E1E1E1E1E1E1E1E1E1E1E1E1E1E1E1E1E1E1E1E1I0H0G071717171717171717171717171717171717171717171F0        ",
"                    I0E1E1E1E1E1E1E1E1E1E1E1E1E1E1E1E1E1E1E1E1E1E1E1E1O0E0G07171717171717171717171717171717171717171F0          ",
"                    D0E1E1E1E1E1E1E1E1E1E1E1E1E1E1E1E1E1E1E1E1E1E1E1E1E1C0B0A0717171717171717171717171717171717171;0            ",
"                      :0O0E1E1E1E1E1E1E1E1E1E1E1E1E1E1E1E1E1E1E1E1E1E1E1E1O09080P071717171717171717171717171717060              ",
"                                                                                  504071717171717171717171c030                  ",
"                                                                                        201000c0c0001020                        ",
"                                                                                                                                ",
"                                                                                                                                "};
