/* XPM */
static char *image[] = {
"64 64 274 2",
"   c None",
"00 c #008e80",
"10 c #008578",
"20 c #00786e",
"30 c #00897b",
"40 c #007e72",
"50 c #009083",
"60 c #008d7f",
"70 c #008478",
"80 c #007e73",
"90 c #00796e",
":0 c #007c71",
";0 c #0e8075",
"A0 c #50a29b",
"B0 c #96c7c3",
"C0 c #c6e1de",
"D0 c #ddedec",
"E0 c #6dc2ba",
"F0 c #00877b",
"G0 c #008477",
"H0 c #2d9087",
"I0 c #f1f8f8",
"J0 c #169f92",
"K0 c #7fbcb6",
"L0 c #9acac5",
"M0 c #228b80",
"N0 c #008377",
"O0 c #16857b",
"P0 c #aed4d1",
"Q0 c #74c5be",
"R0 c #209287",
"S0 c #f7fbfa",
"T0 c #a1cdc9",
"U0 c #1a887e",
"V0 c #008f82",
"W0 c #4aa69d",
"X0 c #e9f3f2",
"Y0 c #daeeed",
"Z0 c #acd3cf",
"a0 c #e8f3f2",
"b0 c #3d9990",
"c0 c #4cb5ab",
"d0 c #409e95",
"e0 c #6db2ab",
"f0 c #008a7d",
"g0 c #008074",
"h0 c #b9e1dd",
"i0 c #028b7e",
"j0 c #d0e6e4",
"k0 c #69b0a9",
"l0 c #008073",
"m0 c #4aa199",
"n0 c #148e83",
"o0 c #67b0a9",
"p0 c #409b93",
"q0 c #009285",
"r0 c #178c81",
"s0 c #98c9c4",
"t0 c #91d1cb",
"u0 c #108e81",
"v0 c #eaf4f3",
"w0 c #ecf5f4",
"x0 c #1e9287",
"y0 c #009183",
"z0 c #afd5d1",
"01 c #2f978e",
"11 c #8ec4be",
"21 c #a1cec9",
"31 c #008a7c",
"41 c #2f9a8f",
"51 c #bfddda",
"61 c #008c7f",
"71 c #69c1b8",
"81 c #27948a",
"91 c #fafcfc",
":1 c #fcfdfd",
";1 c #25958a",
"A1 c #009487",
"B1 c #a4cfcb",
"C1 c #53a79f",
"D1 c #d2ebe9",
"E1 c #b6e1dd",
"F1 c #a3d9d4",
"G1 c #119488",
"H1 c #088b7f",
"I1 c #42b1a7",
"J1 c #008277",
"K1 c #00897c",
"L1 c #53aca4",
"M1 c #7bbab4",
"N1 c #aedcd8",
"O1 c #00887d",
"P1 c #97cac6",
"Q1 c #72c5bd",
"R1 c #00867a",
"S1 c #007f73",
"T1 c #008e82",
"U1 c #c8e3e0",
"V1 c #86cdc6",
"W1 c #c4e1de",
"X1 c #deeeec",
"Y1 c #e5f3f2",
"Z1 c #dcedeb",
"a1 c #5ebdb4",
"b1 c #019587",
"c1 c #c8e7e4",
"d1 c #f5faf9",
"e1 c #039688",
"f1 c #dcedec",
"g1 c #37ada2",
"h1 c #fefffe",
"i1 c #dfefed",
"j1 c #049688",
"k1 c #079687",
"l1 c #c4e7e3",
"m1 c #86cdc7",
"n1 c #00887c",
"o1 c #a2d8d3",
"p1 c #c8e4e2",
"q1 c #079588",
"r1 c #0b9688",
"s1 c #219187",
"t1 c #72b5af",
"u1 c #009385",
"v1 c #f3f9f9",
"w1 c #98d1cb",
"x1 c #0b9589",
"y1 c #0e9587",
"z1 c #008e81",
"02 c #add4d0",
"12 c #f4f9f9",
"22 c #1a9084",
"32 c #7ac8c0",
"42 c #54b7ae",
"52 c #0e9488",
"62 c #18998d",
"72 c #008376",
"82 c #00786d",
"92 c #008175",
":2 c #419e96",
";2 c #a3ceca",
"A2 c #009082",
"B2 c #def0ee",
"C2 c #1a9a8e",
"D2 c #a3d8d3",
"E2 c #b6e0dc",
"F2 c #038b7f",
"G2 c #d1e7e5",
"H2 c #fefefe",
"I2 c #389a92",
"J2 c #52b8ae",
"K2 c #a5d8d3",
"L2 c #109b8e",
"M2 c #25a599",
"N2 c #28a69b",
"O2 c #68b0aa",
"P2 c #c9e2e0",
"Q2 c #018b7f",
"R2 c #bee3df",
"S2 c #0f9b8e",
"T2 c #a0d6d2",
"U2 c #8fd0ca",
"V2 c #108d81",
"W2 c #ebf4f4",
"X2 c #5faca5",
"Y2 c #fcfefd",
"Z2 c #afddd9",
"a2 c #1b9d90",
"b2 c #1ea296",
"c2 c #ecf7f6",
"d2 c #009184",
"e2 c #90c5bf",
"f2 c #e6f2f1",
"g2 c #0c8c80",
"h2 c #97d3ce",
"i2 c #ebf6f5",
"j2 c #169e92",
"k2 c #40b0a6",
"l2 c #fafdfc",
"m2 c #68c0b8",
"n2 c #28948a",
"o2 c #87c0ba",
"p2 c #009284",
"q2 c #4ab4ab",
"r2 c #179e92",
"s2 c #29a59a",
"t2 c #68c1b9",
"u2 c #d1ebe8",
"v2 c #008d80",
"w2 c #b7d9d6",
"x2 c #f8fbfb",
"y2 c #229287",
"z2 c #28a599",
"03 c #fafdfd",
"13 c #41b1a6",
"23 c #009587",
"33 c #4ba39b",
"43 c #aedbd7",
"53 c #189f93",
"63 c #3dafa4",
"73 c #e8f5f4",
"83 c #addcd7",
"93 c #058a7f",
":3 c #d9ebe9",
";3 c #e9f6f4",
"A3 c #4bb5ab",
"B3 c #07998b",
"C3 c #2ba79a",
"D3 c #a2d9d4",
"E3 c #f8fcfb",
"F3 c #21a497",
"G3 c #009486",
"H3 c #73b6af",
"I3 c #aeded9",
"J3 c #179f93",
"K3 c #21a297",
"L3 c #22a498",
"M3 c #9bd6d0",
"N3 c #7fcac3",
"O3 c #169387",
"P3 c #f0f7f7",
"Q3 c #ffffff",
"R3 c #fbfdfd",
"S3 c #a4dad5",
"T3 c #18a093",
"U3 c #6dc3bb",
"V3 c #ddf1ef",
"W3 c #f4fafa",
"X3 c #f5fbfa",
"Y3 c #def1f0",
"Z3 c #c7e8e5",
"a3 c #97d4ce",
"b3 c #51b7ae",
"c3 c #0f9c8f",
"d3 c #2da99d",
"e3 c #0a9a8d",
"f3 c #05988a",
"g3 c #2aa69c",
"h3 c #2aa79b",
"i3 c #099a8c",
"j3 c #2ba89c",
"k3 c #2da89d",
"l3 c #109d8f",
"m3 c #30aa9e",
"n3 c #1aa194",
"o3 c #2faa9d",
"p3 c #24a599",
"q3 c #029789",
"r3 c #2faa9f",
"s3 c #2faa9c",
"t3 c #19a094",
"u3 c #2ea99e",
"v3 c #2fa99d",
"w3 c #009688",
"x3 c #039789",
"y3 c #119d90",
"z3 c #23a498",
"04 c #31aa9e",
"14 c #2ea99d",
"24 c #019688",
"34 c #04988a",
"44 c #06988b",
"54 c #0c9b8e",
"64 c #149e91",
"74 c #1da296",
"84 c #29a79b",
"94 c #31aa9f",
":4 c #30ab9e",
";4 c #33aba0",
"A4 c #32aaa0",
"B4 c #32aba0",
"C4 c #31a99f",
"D4 c #2fa99e",
"E4 c #2da89c",
"                                                                                                                                ",
"                                                                                                                                ",
"                                                                                                                                ",
"                                                                                                                                ",
"                                                    E4D4C4B4A4;4;4A4B4C4D4E4                                                    ",
"                                              :494847464544434242434445464748494:4                                              ",
"                                        1404z3y3x3w3w3w3w3w3w3w3w3w3w3w3w3w3w3x3y3z30414                                        ",
"                                    v3u3t334w3w3w3w3w3w3w3w3w3w3w3w3w3w3w3w3w3w3w3w334t3u3s3                                    ",
"                                  r3t3q3w3w3w3w3w3w3w3w3w3w3w3w3w3w3w3w3w3w3w3w3w3w3w3w3q3t3r3                                  ",
"                              v3p344w3w3w3w3w3w3w3w3w3w3w3w3w3w3w3w3w3w3w3w3w3w3w3w3w3w3w3w344p3s3                              ",
"                            o3n3w3w3w3w3w3w3w3w3w3w3w3w3w3w3w3w3w3w3w3w3w3w3w3w3w3w3w3w3w3w3w3w3t3m3                            ",
"                          v3l3w3w3w3w3w3w3w3w3w3w3w3w3w3w3w3w3w3w3w3w3w3w3w3w3w3w3w3w3w3w3w3w3w3w3l3k3                          ",
"                        j3i3w3w3w3w3w3w3w3w3w3w3w3w3w3w3w3w3w3w3w3w3w3w3w3w3w3w3w3w3w3w3w3w3w3w3w3w3i3h3                        ",
"                      g3f3w3w3w3w3w3w3w3w3w3w3w3w3w3w3w3w3w3w3w3w3w3w3w3w3w3w3w3w3w3w3w3w3w3w3w3w3w3w3f3h3                      ",
"                    E4e3w3w3w3w3w3w3w3w3w3w3w3w3w3w3w3w3w3w3w3w3w3w3w3w3w3w3w3w3w3w3w3w3w3w3w3w3w3w3w3w3e3d3                    ",
"                  d3l3w3w3w3w3w3w3w3w3w3w3w3w3w3w3w3c3b3a3Z3Y3X3W3V3U3w3w3w3w3w3w3w3w3w3w3w3w3w3w3w3w3w3w3l3u3                  ",
"                  T3w3w3w3w3w3w3w3w3w3w3w3w3w3w314S3R3Q3Q3Q3Q3Q3Q3P3O3w3w3N3M3L3w3w3w3w3w3w3w3w3w3w3w3w3w3w3T3                  ",
"                K3w3w3w3w3w3w3w3w3w3w3w3w3w3J3I3Q3Q3Q3Q3Q3Q3Q3Q3Q3H3G3w3F3E3Q3R3D3n3w3w3w3w3w3w3w3w3w3w3w3w3w3K3                ",
"              C3B3w3w3w3w3w3w3w3w3w3w3w3w3A3;3Q3Q3Q3Q3Q3Q3Q3Q3Q3:393w3w383Q3Q3Q3Q37363w3w3w3w3w3w3w3w3w3w3w3w344C3              ",
"              53w3w3w3w3w3w3w3w3w3w3w3w3w343Q3Q3Q3Q3Q3Q3Q3Q3Q3Q33323w313Q3Q3Q3Q3Q3Q303U3w3w3w3w3w3w3w3w3w3w3w3w353              ",
"            z2x3w3w3w3w3w3w3w3w3w3w3w3w3w3y2x2Q3Q3Q3Q3Q3Q3Q3Q3w2v2w3x3u2Q3Q3Q3Q3Q3Q3Q3Q3t2w3w3w3w3w3w3w3w3w3w3w3x3s2            ",
"            r2w3w3w3w3w3w3w3w3w3w3w3q264w3p2o2Q3Q3Q3Q3Q3Q3Q3R3n2w3w3m2Q3Q3Q3Q3Q3Q3Q3Q3Q3l2k2w3w3w3w3w3w3w3w3w3w3w3j2            ",
"            f3w3w3w3w3w3w3w3w3w3w3T3i2h2w3w3g2f2Q3Q3Q3Q3Q3Q3e2d2w3l3i2Q3Q3Q3Q3Q3Q3Q3Q3Q3Q3c2b2w3w3w3w3w3w3w3w3w3w3f3            ",
"          a2w3w3w3w3w3w3w3w3w3w3w3Z2Q3Y214w323X2Q3Q3Q3Q3Q3W2V2w3w3U2Q3Q3Q3Q3Q3Q3Q3Q3Q3Q3Q3Q3T2w3w3w3w3w3w3w3w3w3w3w3a2          ",
"          S2w3w3w3w3w3w3w3w3w3w394Q3Q3Q3R2w3w3Q2P2Q3Q3Q3Q3O2G3w3N2l2Q3Q3Q3Q3Q3Q3Q3Q3Q3Q3Q3Q3Y2M2w3w3w3w3w3w3w3w3w3w3L2          ",
"          34w3w3w3w3w3w3w3w3w3w3K2Q3Q3Q3Q3J2w3w3I2H2Q3Q3G2F2w3w3E2Q3Q3Q3Q3Q3Q3Q3Q3Q3Q3Q3Q3Q3Q3D2w3w3w3w3w3w3w3w3w3w334          ",
"        C2w3w3w3w3w3w3w3w3w3w3y3R3Q3Q3Q3Q3B2B3w3A2;2Q3Q3:223w3w392828282828282828282828282828272w3w3w3w3w3w3w3w3w3w3w362        ",
"        52w3w3w3w3w3w3w3w3w3w342Q3Q3Q3Q3Q3Q332w3w3221202z1w3w3w3w3w3w3w3w3w3w3w3w3w3w3w3w3w3w3w3w3w3w3w3w3w3w3w3w3w3w3y1        ",
"        x1w3w3w3w3w3w3w3w3w3w3w1Q3Q3Q3Q3Q3Q3v1n3w3u1t1s1w3w3w3w3w3w3w3w3w3w3w3w3w3w3w3w3w3w3w3w3w3w3w3w3w3w3w3w3w3w3w3r1        ",
"        q1w3w3w3w3w3w3w3w3w3w3p1Q3Q3Q3Q3Q3Q3Q3o1w3w3n1p2w3w3w3w3w3w3w3w3w3m1Q3Q3Q3Q3Q3Q3Q3Q3Q3Q3l1w3w3w3w3w3w3w3w3w3w3k1        ",
"        j1w3w3w3w3w3w3w3w3w3w3i1Q3Q3Q3Q3Q3Q3Q3h1g1w3w3w3w3w3w3w3w3w3w3w3w3g2f2Q3Q3Q3Q3Q3Q3Q3Q3Q3f1w3w3w3w3w3w3w3w3w3w3j1        ",
"        e1w3w3w3w3w3w3w3w3w3w3d1Q3Q3Q3Q3Q3Q3Q3Q3c124w3w3w3w3w3w3w3w3w3w3w323X2Q3Q3Q3Q3Q3Q3Q3Q3Q312w3w3w3w3w3w3w3w3w3w3e1        ",
"        b1w3w3w3w3w3w3w3w3w3w312Q3Q3Q3Q3Q3Q3Q3Q3Q3a1w3w3w3w3w3w3w3w3w3w3w3w3Q2P2Q3Q3Q3Q3Q3Q3Q3Q312w3w3w3w3w3w3w3w3w3w323        ",
"        G3w3w3w3w3w3w3w3w3w3w3Z1Q3Q3Q3Q3Q3Q3Q3Q3Q3Y154w3w3w3w3w3w3w3w3w3w3w3w3I2H2Q3Q3Q3Q3Q3Q3Q3X1w3w3w3w3w3w3w3w3w3w3u1        ",
"        p2w3w3w3w3w3w3w3w3w3w3W1Q3Q3Q3Q3Q3Q3Q3Q3Q3Q3V1w3w3w3w3w3w3w3w3w3w3w3w3A2;2Q3Q3Q3Q3Q3Q3Q3U1w3w3w3w3w3w3w3w3w3w3p2        ",
"        T1w3w3w3w3w3w3w3w3w3w3S182828282828282828282R1w3w3w3w3w3w3w3w3w3F3Q1w3w32212Q3Q3Q3Q3Q3Q3P1w3w3w3w3w3w3w3w3w3w3z1        ",
"        O1w3w3w3w3w3w3w3w3w3w3w3w3w3w3w3w3w3w3w3w3w3w3w3w3w3w3w3w3w3w3w3N1v1n3w3u1M1Q3Q3Q3Q3Q3Q3L1w3w3w3w3w3w3w3w3w3w3K1        ",
"        J1w3w3w3w3w3w3w3w3w3w3w3w3w3w3w3w3w3w3w3w3w3w3w3w3w3w3w3w3w3w3I1Q3Q3o1w3w3H1X1Q3Q3Q3Q3R3G1w3w3w3w3w3w3w3w3w3w3J1        ",
"          w3w3w3w3w3w3w3w3w3w3w3F1Q3Q3Q3Q3Q3Q3Q3Q3Q3Q3Q3Q3Q3Q3E1w3w3x3D1Q3Q3h1g1w323C1Q3Q3Q3Q3B1G3w3w3w3w3w3w3w3w3w3w3          ",
"          A1w3w3w3w3w3w3w3w3w3w3;1:1Q3Q3Q3Q3Q3Q3Q3Q3Q3Q3Q3Q39181w3w371Q3Q3Q3Q3c124w36151Q3Q3Q341w3w3w3w3w3w3w3w3w3w3G3          ",
"          31w3w3w3w3w3w3w3w3w3w3p221Q3Q3Q3Q3Q3Q3Q3Q3Q3Q3Q3Q311d2w3y3i2Q3Q3Q3Q3Q3a1w3w301:1Q3z0y0w3w3w3w3w3w3w3w3w3w331          ",
"            w3w3w3w3w3w3w3w3w3w3w3x0w0Q3Q3Q3Q3Q3Q3Q3Q3Q3Q3v0u0w3w3t0Q3Q3Q3Q3Q3Q3Y154w3y0s0W2r0w3w3w3w3w3w3w3w3w3w3w3            ",
"            u1w3w3w3w3w3w3w3w3w3w3q0p0R3Q3Q3Q3Q3Q3Q3Q3Q3Q3o0G3w384R3Q3Q3Q3Q3Q3Q3Q3V1w3w3n0m0u1w3w3w3w3w3w3w3w3w3w3G3            ",
"            l0w3w3w3w3w3w3w3w3w3w3w3z1k0Q3Q3Q3Q3Q3Q3Q3Q3j0i0w3w3h0Q3Q3Q3Q3Q3Q3Q3Q3E3F3w3G3v2w3w3w3w3w3w3w3w3w3w3w3g0            ",
"              23w3w3w3w3w3w3w3w3w3w3w3f0e0R3Q3Q3Q3Q3Q3Q3d0w3w3c0Q3Q3Q3Q3Q3Q3Q3Q3Q3Q3N1w3w3w3w3w3w3w3w3w3w3w3w3w323              ",
"              l0w3w3w3w3w3w3w3w3w3w3w3w3K1b0a0Q3Q3Q3Q3Z0z1w3f3Y0Q3Q3Q3Q3Q3Q3Q3Q3Q3X0W0w3w3w3w3w3w3w3w3w3w3w3w3w3l0              ",
"                q0w3w3w3w3w3w3w3w3w3w3w3w3V0U0T0R3Q3S0R0w3w3Q0Q3Q3Q3Q3Q3Q3Q3Q3Q3P0O0v2w3w3w3w3w3w3w3w3w3w3w3w3p2                ",
"                  w3w3w3w3w3w3w3w3w3w3w3w3w3u1N0M0L0K0q0w3J0I0Q3Q3Q3Q3Q3Q3R3;2H092G3w3w3w3w3w3w3w3w3w3w3w3w3w3                  ",
"                  l0w3w3w3w3w3w3w3w3w3w3w3w3w3w3p2G0F0w3w3E0Z11212D0C0B0A0;072y0w3w3w3w3w3w3w3w3w3w3w3w3w3w3S1                  ",
"                    K1w3w3w3w3w3w3w3w3w3w3w3w3w3w3w3w3w3w3K1:09090:0807060G3w3w3w3w3w3w3w3w3w3w3w3w3w3w3w3f0                    ",
"                      50w3w3w3w3w3w3w3w3w3w3w3w3w3w3w3w3w3w3w3w3w3w3w3w3w3w3w3w3w3w3w3w3w3w3w3w3w3w3w3w3A2                      ",
"                        u1w3w3w3w3w3w3w3w3w3w3w3w3w3w3w3w3w3w3w3w3w3w3w3w3w3w3w3w3w3w3w3w3w3w3w3w3w3w3u1                        ",
"                          50w3w3w3w3w3w3w3w3w3w3w3w3w3w3w3w3w3w3w3w3w3w3w3w3w3w3w3w3w3w3w3w3w3w3w3w3A2                          ",
"                            K1w3w3w3w3w3w3w3w3w3w3w3w3w3w3w3w3w3w3w3w3w3w3w3w3w3w3w3w3w3w3w3w3w3w3f0                            ",
"                              l0w3w3w3w3w3w3w3w3w3w3w3w3w3w3w3w3w3w3w3w3w3w3w3w3w3w3w3w3w3w3w3w3S1                              ",
"                                  q0w3w3w3w3w3w3w3w3w3w3w3w3w3w3w3w3w3w3w3w3w3w3w3w3w3w3w3w3q0                                  ",
"                                    l023w3w3w3w3w3w3w3w3w3w3w3w3w3w3w3w3w3w3w3w3w3w3w3w323l0                                    ",
"                                        40u1w3w3w3w3w3w3w3w3w3w3w3w3w3w3w3w3w3w3w3w3u140                                        ",
"                                              30A1w3w3w3w3w3w3w3w3w3w3w3w3w3w3G330                                              ",
"                                                    201000p2u12323u1p2001020                                                    ",
"                                                                                                                                ",
"                                                                                                                                ",
"                                                                                                                                ",
"                                                                                                                                "};
